<svg xmlns="http://www.w3.org/2000/svg" xmlns:xlink="http://www.w3.org/1999/xlink" version="1.1" x="0px" y="0px" viewBox="0 0 512 640" enable-background="new 0 0 512 512" xml:space="preserve"><g><polygon points="224.424,126.317 185.176,126.317 185.176,185.19 126.304,185.19 126.304,224.408 185.176,224.408 185.176,283.313    224.424,283.313 224.424,224.408 283.312,224.408 283.312,185.19 224.424,185.19  "/><path d="M375.65,317.717c21.437-32.373,33.936-71.186,33.936-112.902c0-113.121-91.683-204.805-204.786-204.805   C91.695,0.009,0.013,91.693,0.013,204.814c0,113.09,91.683,204.773,204.787,204.773c41.731,0,80.559-12.498,112.932-33.936   L454.053,511.99l57.935-57.938L375.65,317.717z M204.8,351.621c-81.043,0-146.758-65.715-146.758-146.776   c0-81.06,65.715-146.776,146.758-146.776c81.059,0,146.773,65.716,146.773,146.776C351.573,285.906,285.858,351.621,204.8,351.621z   "/></g><text x="0" y="527" fill="#000000" font-size="5px" font-weight="bold" font-family="'Helvetica Neue', Helvetica, Arial-Unicode, Arial, Sans-serif">Created by Baboon designs</text><text x="0" y="532" fill="#000000" font-size="5px" font-weight="bold" font-family="'Helvetica Neue', Helvetica, Arial-Unicode, Arial, Sans-serif">from the Noun Project</text></svg>